PathFileType	3	(X/Y/Z)	F:\ViconData\AntennenMessung\Messung1\Session1\ID15.trc
DataRate	CameraRate	NumFrames	NumMarkers	Units	OrigDataRate	OrigDataStartFrame	OrigNumFrames
120.0	120.0	4	70	mm	120.0	672	1342	
Frame#	Time	Ashort			Along			Atop			A4			Bshort			Blong			Btop			B4			Cshort			Clong			Ctop			C4			Dshort			Dlong			Dtop			D4			Eshort			Elong			Etop			E4			Fshort			Flong			Ftop			F4			Gshort			Glong			Gtop			G4			Hshort			Hlong			Htop			H4			I1			I2			I3			I4			I5			WandAshort			WandAlong			WandAtop			WandA4			WandA15			WandBshort			WandB4			WandB5			WandBtop			WandBlong			WandCshort			WandClong			WandCtop			WandC4			WandC5			Acenter			Aantenna			Bcenter			Bantenna			Ccenter			Cantenna			Dcenter			Dantenna			Ecenter			Eantenna			Fcenter			Fantenna			Gcenter			Gantenna			Hcenter			Hantenna			Icenter			Iantenna			
		X1	Y1	Z1	X2	Y2	Z2	X3	Y3	Z3	X4	Y4	Z4	X5	Y5	Z5	X6	Y6	Z6	X7	Y7	Z7	X8	Y8	Z8	X9	Y9	Z9	X10	Y10	Z10	X11	Y11	Z11	X12	Y12	Z12	X13	Y13	Z13	X14	Y14	Z14	X15	Y15	Z15	X16	Y16	Z16	X17	Y17	Z17	X18	Y18	Z18	X19	Y19	Z19	X20	Y20	Z20	X21	Y21	Z21	X22	Y22	Z22	X23	Y23	Z23	X24	Y24	Z24	X25	Y25	Z25	X26	Y26	Z26	X27	Y27	Z27	X28	Y28	Z28	X29	Y29	Z29	X30	Y30	Z30	X31	Y31	Z31	X32	Y32	Z32	X33	Y33	Z33	X34	Y34	Z34	X35	Y35	Z35	X36	Y36	Z36	X37	Y37	Z37	X38	Y38	Z38	X39	Y39	Z39	X40	Y40	Z40	X41	Y41	Z41	X42	Y42	Z42	X43	Y43	Z43	X44	Y44	Z44	X45	Y45	Z45	X46	Y46	Z46	X47	Y47	Z47	X48	Y48	Z48	X49	Y49	Z49	X50	Y50	Z50	X51	Y51	Z51	X52	Y52	Z52	X53	Y53	Z53	X54	Y54	Z54	X55	Y55	Z55	X56	Y56	Z56	X57	Y57	Z57	X58	Y58	Z58	X59	Y59	Z59	X60	Y60	Z60	X61	Y61	Z61	X62	Y62	Z62	X63	Y63	Z63	X64	Y64	Z64	X65	Y65	Z65	X66	Y66	Z66	X67	Y67	Z67	X68	Y68	Z68	X69	Y69	Z69	X70	Y70	Z70	
672	5.5916667	-1038.1931	214.55751	-1644.0935	-1109.4032	204.27104	-1599.3732	-1063.7051	173.14023	-1625.8593	-1054.1549	262.22849	-1634.837	-1352.7347	235.10327	1003.6268	-1281.3632	227.35696	1052.3929	-1322.7314	193.92108	1020.9897	-1284.4741	287.92145	1052.8611	813.99554	187.62685	1209.3873	892.67853	179.22318	1178.6361	844.50696	145.52975	1198.2417	860.98981	292.35251	1167.4288	1115.7736	209.69249	-1401.5656	1056.2809	194.09636	-1460.1677	1095.2703	162.64958	-1423.7865	1069.759	238.83028	-1425.7369	-1204.5242	1685.9707	-1563.2252	-1129.1235	1688.3043	-1605.9532	-1173.1177	1724.3286	-1581.9219	-1134.028	1581.0284	-1603.7955	-1239.5277	1699.0748	1119.4626	-1309.2513	1698.7832	1071.9216	-1270.4059	1736.3201	1096.8972	-1245.0018	1593.5935	1106.6183	988.97272	1664.3041	1162.2296	957.38477	1700.4845	1183.7904	921.94476	1662.3103	1214.8607	939.82794	1659.4108	1159.8987	999.12604	1668.468	-1579.3662	1058.9111	1670.1588	-1518.5702	1025.0004	1708.0457	-1551.0427	1059.3021	1672.1543	-1585.3436	-201.7018	1171.5918	-147.20654	-197.00484	1170.8218	-231.2453	-199.09103	1208.4908	-184.95456	-166.68227	1171.0317	-182.56145	-247.6218	1172.5719	-186.64694																																														-1068.5382	210.1741	-1625.0366	-1073.5839	248.83681	-1624.1779	-1321.3975	231.70207	1025.0386	-1320.0289	270.45618	1029.1918	847.80859	184.01547	1196.1722	851.13733	222.81709	1194.0857	1088.9351	202.65672	-1428.0022	1082.8679	240.96979	-1432.0396	-1171.8571	1686.9816	-1581.7369	-1170.5414	1648.0043	-1581.5442	-1271.0024	1698.9431	1098.0015	-1271.6244	1659.9651	1099.153	952.7323	1705.8131	1186.9659	972.69312	1734.0176	1168.8809	1026.5455	1669.2434	-1551.4829	1028.0973	1630.2769	-1551.925	-199.60948	1171.2487	-184.64235	-200.15237	1132.2539	-184.31544
673	5.6	-1038.1947	214.55075	-1644.0741	-1109.3882	204.18703	-1599.3599	-1063.625	172.93683	-1625.832	-1054.1531	262.26199	-1634.847	-1352.7522	235.16176	1003.6569	-1281.323	227.35823	1052.3192	-1322.6986	193.88963	1020.9919	-1284.38	287.94247	1052.7874	813.98413	187.61487	1209.4039	892.19421	178.52679	1179.2368	844.50891	145.53246	1198.2633	861.15582	292.33173	1167.3269	1115.7938	209.7028	-1401.5647	1056.277	194.16034	-1460.2002	1095.2684	162.62881	-1423.7778	1069.744	238.88493	-1425.7764	-1204.5973	1686.0419	-1563.0643	-1129.1144	1688.2983	-1605.954	-1173.1158	1724.3141	-1581.9203	-1134.0356	1581.0431	-1603.8081	-1239.5449	1699.1096	1119.4778	-1309.2963	1698.8477	1071.9576	-1270.3931	1736.3146	1096.8964	-1245.6216	1592.8818	1110.6871	988.95026	1664.2881	1162.2206	957.30566	1700.5504	1183.7339	921.83392	1662.3104	1214.8234	939.84631	1659.4213	1159.9282	999.12939	1668.4723	-1579.3757	1058.9164	1670.1638	-1518.5748	1025.0005	1708.0542	-1551.0529	1059.2827	1672.1466	-1585.3446	-201.71683	1171.5972	-147.22339	-196.99715	1170.8169	-231.23853	-199.14569	1208.5808	-184.95279	-166.69942	1171.0232	-182.5641	-247.66763	1172.6118	-186.67442																																														-1068.5304	210.13472	-1625.0211	-1073.6284	248.79091	-1624.1783	-1321.3358	231.72957	1025.0597	-1319.9403	270.48132	1029.2256	848.15131	183.64461	1196.225	851.85645	222.4128	1194.1515	1088.963	202.69611	-1427.998	1082.9327	241.01508	-1432.0344	-1171.8572	1687.0204	-1581.6672	-1170.5419	1648.0435	-1581.4028	-1271.0254	1698.9913	1098.0305	-1271.6859	1660.0149	1099.2151	952.69812	1705.8302	1186.8663	972.68182	1734.0081	1168.7648	1026.5466	1669.2479	-1551.4934	1028.0991	1630.2814	-1551.9359	-199.6153	1171.2496	-184.63252	-200.10587	1132.2543	-184.29797
674	5.6083333	-1038.1904	214.53798	-1644.0607	-1109.3939	204.16772	-1599.3558	-1063.6917	173.15155	-1625.8656	-1054.161	262.24033	-1634.8258	-1352.7592	235.07533	1003.6708	-1281.3668	227.38922	1052.3455	-1322.7024	193.90454	1021.014	-1284.3741	287.94659	1052.7601	814.1496	187.5643	1209.4329	892.21838	178.56947	1179.1832	844.47131	145.55342	1198.261	861.17175	292.35315	1167.8984	1115.7847	209.69292	-1401.5671	1056.2629	194.09483	-1460.1522	1095.2235	162.49902	-1423.7949	1069.7419	238.86087	-1425.76	-1204.5773	1686.0347	-1563.0737	-1129.1226	1688.3243	-1605.9646	-1173.1155	1724.3264	-1581.9203	-1134.0391	1581.0267	-1603.7864	-1239.5131	1699.0769	1119.4648	-1309.3329	1698.8993	1071.9761	-1270.3911	1736.3047	1096.8934	-1244.9941	1593.5375	1106.579	988.90198	1664.2428	1162.2062	957.26685	1700.5637	1183.7416	921.82202	1662.3202	1214.8564	939.85315	1659.4431	1159.897	999.12488	1668.4536	-1579.3549	1058.9065	1670.1519	-1518.5728	1025.0013	1708.0518	-1551.0493	1059.3026	1672.1505	-1585.3392	-201.71535	1171.5748	-147.19897	-197.00826	1170.8268	-231.23627	-199.07715	1208.494	-184.94835	-166.50853	1171.1552	-182.52606	-247.64342	1172.5797	-186.64403																																														-1068.5369	210.11824	-1625.0076	-1073.604	248.77724	-1624.1106	-1321.3905	231.69817	1025.0576	-1320.0452	270.45377	1029.2042	848.09363	183.65337	1196.2804	851.77991	222.42642	1194.2648	1088.885	202.64369	-1428.0433	1082.8356	240.95769	-1432.0981	-1171.8466	1687.0278	-1581.679	-1170.5205	1648.0511	-1581.4269	-1271.0559	1698.9966	1098.0105	-1271.7506	1660.0203	1099.1776	952.6947	1705.813	1186.8539	972.68195	1733.9706	1168.7249	1026.5414	1669.2324	-1551.4795	1028.0874	1630.2654	-1551.9114	-199.6178	1171.2416	-184.64703	-200.18375	1132.2468	-184.33162
675	5.6166667	-1038.1812	214.47011	-1644.0151	-1109.4025	204.18999	-1599.3356	-1063.6062	172.92235	-1625.8136	-1054.1345	262.26721	-1634.8584	-1352.6853	235.09731	1003.6302	-1281.3497	227.30145	1052.3844	-1322.7302	193.87068	1021.0168	-1284.4232	287.93091	1052.8311	814.06122	187.51122	1209.3839	892.23346	178.61386	1179.1324	844.51404	145.64864	1198.2025	861.02484	292.44751	1167.3295	1115.7847	209.69066	-1401.5637	1056.2697	194.14241	-1460.1808	1095.2108	162.51254	-1423.7987	1069.7552	238.83275	-1425.7498	-1204.6038	1686.0345	-1563.062	-1129.1226	1688.3335	-1605.9739	-1173.1078	1724.3385	-1581.9335	-1133.7606	1581.0153	-1603.6709	-1239.5238	1699.0812	1119.4626	-1309.3099	1698.8601	1071.9644	-1270.3984	1736.3162	1096.8978	-1244.9053	1593.6993	1106.4822	988.91827	1664.2297	1162.218	957.35907	1700.5337	1183.8156	921.98322	1662.2729	1214.9641	939.83954	1659.4429	1159.9071	999.13995	1668.4558	-1579.3625	1058.907	1670.1544	-1518.5851	1025.0055	1708.0449	-1551.0446	1059.2937	1672.1887	-1585.4503	-201.70911	1171.5808	-147.19063	-197.02031	1170.8389	-231.23711	-199.16418	1208.5801	-184.9623	-166.6467	1171.0548	-182.56154	-247.63235	1172.5692	-186.64273																																														-1068.4702	210.09813	-1625.0135	-1073.5289	248.75972	-1624.1819	-1321.3519	231.67305	1025.0448	-1319.9388	270.42804	1029.1744	848.07184	183.64021	1196.2223	851.70331	222.41814	1194.2012	1088.9003	202.66711	-1428.0424	1082.8782	240.98596	-1432.0923	-1171.834	1687.0325	-1581.6919	-1170.5034	1648.056	-1581.4393	-1271.0389	1698.9813	1098.0126	-1271.7075	1660.0044	1099.1761	952.8172	1705.7583	1186.9237	972.78186	1733.9147	1168.7679	1026.5551	1669.235	-1551.4839	1028.111	1630.2684	-1551.9248	-199.61885	1171.25	-184.65813	-200.09383	1132.2542	-184.34038
